<svg height="512pt" viewBox="-31 0 512 512" width="512pt" xmlns="http://www.w3.org/2000/svg"><path d="m26.699219 451h156.601562v30h-156.601562zm0 0" fill="#ffda2d"/><path d="m105 451h78.300781v30h-78.300781zm0 0" fill="#eebf00"/><path d="m38.101562 301h133.796876v30h-133.796876zm0 0" fill="#ffda2d"/><path d="m105 301h66.898438v30h-66.898438zm0 0" fill="#eebf00"/><path d="m15 241h180v30h-180zm0 0" fill="#ffda2d"/><path d="m105 241h90v30h-90zm0 0" fill="#eebf00"/><path d="m38.101562 181h133.796876v30h-133.796876zm0 0" fill="#ffda2d"/><path d="m105 181h66.898438v30h-66.898438zm0 0" fill="#eebf00"/><path d="m26.699219 31h156.601562v30h-156.601562zm0 0" fill="#ffda2d"/><path d="m105 31h78.300781v30h-78.300781zm0 0" fill="#eebf00"/><path d="m210 256c0 54.898438-54.902344 106.199219-105 151.5-1.199219 1.199219-2.402344 2.101562-3.601562 3.300781-33.296876 30.296875-71.398438 64.800781-71.398438 85.199219v16h-30v-16c0-33.601562 37.800781-67.800781 81.300781-107.402344 7.796875-7.199218 15.898438-14.398437 23.699219-21.898437 39-36.300781 75-75 75-110.699219s-36-74.402344-75-110.699219c-7.800781-7.5-15.902344-14.699219-23.699219-21.902343-43.5-39.597657-81.300781-74.796876-81.300781-108.398438v-15h30v15c0 20.398438 38.101562 55.898438 71.398438 86.199219 1.199218 1.199219 2.402343 2.101562 3.601562 3.300781 50.097656 45.300781 105 96.597656 105 151.5zm0 0" fill="#fa5e97"/><path d="m210 256c0 54.898438-54.902344 106.199219-105 151.5v-40.800781c39-36.300781 75-75 75-110.699219s-36-74.402344-75-110.699219v-40.800781c50.097656 45.300781 105 96.597656 105 151.5zm0 0" fill="#d94f88"/><path d="m30 256c0 35.699219 36 74.398438 75 110.699219 7.800781 7.5 15.902344 14.699219 23.699219 21.898437 43.5 39.601563 81.300781 73.800782 81.300781 107.402344v16h-30v-16c0-20.398438-38.101562-54.902344-71.398438-85.199219-1.199218-1.199219-2.402343-2.101562-3.601562-3.300781-50.097656-45.300781-105-96.601562-105-151.5 0-54.902344 54.902344-106.199219 105-151.5 1.199219-1.199219 2.402344-2.101562 3.601562-3.300781 33.296876-30.300781 71.398438-65.800781 71.398438-86.199219v-15h30v15c0 33.601562-37.800781 68.800781-81.300781 108.398438-7.796875 7.203124-15.898438 14.402343-23.699219 21.902343-39 36.296875-75 75-75 110.699219zm0 0" fill="#25d9f8"/><path d="m210 0v15c0 33.601562-37.800781 68.800781-81.300781 108.398438-7.796875 7.203124-15.898438 14.402343-23.699219 21.902343v-40.800781c1.199219-1.199219 2.402344-2.101562 3.601562-3.300781 33.296876-30.300781 71.398438-65.800781 71.398438-86.199219v-15zm0 0" fill="#00c0f1"/><path d="m210 496v16h-30v-16c0-20.398438-38.101562-54.902344-71.398438-85.199219-1.199218-1.199219-2.402343-2.101562-3.601562-3.300781v-40.800781c7.800781 7.5 15.902344 14.699219 23.699219 21.898437 43.5 39.601563 81.300781 73.800782 81.300781 107.402344zm0 0" fill="#00c0f1"/><path d="m266.699219 451h156.601562v30h-156.601562zm0 0" fill="#ffda2d"/><path d="m345 451h78.300781v30h-78.300781zm0 0" fill="#eebf00"/><path d="m278.101562 301h133.796876v30h-133.796876zm0 0" fill="#ffda2d"/><path d="m345 301h66.898438v30h-66.898438zm0 0" fill="#eebf00"/><path d="m255 241h180v30h-180zm0 0" fill="#ffda2d"/><path d="m345 241h90v30h-90zm0 0" fill="#eebf00"/><path d="m278.101562 181h133.796876v30h-133.796876zm0 0" fill="#ffda2d"/><path d="m345 181h66.898438v30h-66.898438zm0 0" fill="#eebf00"/><path d="m266.699219 31h156.601562v30h-156.601562zm0 0" fill="#ffda2d"/><path d="m345 31h78.300781v30h-78.300781zm0 0" fill="#eebf00"/><path d="m450 256c0 54.898438-54.902344 106.199219-105 151.5-1.199219 1.199219-2.402344 2.101562-3.601562 3.300781-33.296876 30.296875-71.398438 64.800781-71.398438 85.199219v16h-30v-16c0-33.601562 37.800781-67.800781 81.300781-107.402344 7.796875-7.199218 15.898438-14.398437 23.699219-21.898437 39-36.300781 75-75 75-110.699219s-36-74.402344-75-110.699219c-7.800781-7.5-15.902344-14.699219-23.699219-21.902343-43.5-39.597657-81.300781-74.796876-81.300781-108.398438v-15h30v15c0 20.398438 38.101562 55.898438 71.398438 86.199219 1.199218 1.199219 2.402343 2.101562 3.601562 3.300781 50.097656 45.300781 105 96.597656 105 151.5zm0 0" fill="#fa5e97"/><path d="m450 256c0 54.898438-54.902344 106.199219-105 151.5v-40.800781c39-36.300781 75-75 75-110.699219s-36-74.402344-75-110.699219v-40.800781c50.097656 45.300781 105 96.597656 105 151.5zm0 0" fill="#d94f88"/><path d="m270 256c0 35.699219 36 74.398438 75 110.699219 7.800781 7.5 15.902344 14.699219 23.699219 21.898437 43.5 39.601563 81.300781 73.800782 81.300781 107.402344v16h-30v-16c0-20.398438-38.101562-54.902344-71.398438-85.199219-1.199218-1.199219-2.402343-2.101562-3.601562-3.300781-50.097656-45.300781-105-96.601562-105-151.5 0-54.902344 54.902344-106.203125 105-151.5 1.199219-1.203125 2.402344-2.101562 3.601562-3.300781 33.296876-30.300781 71.398438-65.800781 71.398438-86.199219v-15h30v15c0 33.601562-37.800781 68.800781-81.300781 108.398438-7.796875 7.203124-15.898438 14.402343-23.699219 21.902343-39 36.296875-75 75-75 110.699219zm0 0" fill="#25d9f8"/><g fill="#00c0f1"><path d="m450 0v15c0 33.601562-37.800781 68.800781-81.300781 108.398438-7.796875 7.203124-15.898438 14.402343-23.699219 21.902343v-40.800781c1.199219-1.199219 2.402344-2.101562 3.601562-3.300781 33.296876-30.300781 71.398438-65.800781 71.398438-86.199219v-15zm0 0"/><path d="m450 496v16h-30v-16c0-20.398438-38.101562-54.902344-71.398438-85.199219-1.199218-1.199219-2.402343-2.101562-3.601562-3.300781v-40.800781c7.800781 7.5 15.902344 14.699219 23.699219 21.898437 43.5 39.601563 81.300781 73.800782 81.300781 107.402344zm0 0"/></g></svg>